<svg id="visual" viewBox="0 0 900 600" width="900" height="600" xmlns="http://www.w3.org/2000/svg" xmlns:xlink="http://www.w3.org/1999/xlink" version="1.1"><g transform="translate(414.1908291912531 264.74125145689237)"><path d="M286.6 -361.6C369.8 -334 434.6 -248.1 454.4 -155.2C474.3 -62.2 449.2 37.8 416.5 134.4C383.9 231 343.6 324.2 272.9 380.3C202.2 436.3 101.1 455.2 14.1 435.7C-72.9 416.3 -145.8 358.6 -218.1 303.1C-290.3 247.6 -362 194.3 -382.9 125.5C-403.9 56.7 -374.1 -27.6 -336.8 -99.2C-299.5 -170.8 -254.7 -229.8 -197.3 -265.9C-139.9 -301.9 -69.9 -315 15.9 -336.9C101.7 -358.7 203.4 -389.3 286.6 -361.6" fill="#00A162"></path></g></svg>